<svg class="logo__pic" xmlns="http://www.w3.org/2000/svg" width="40" height="40" viewBox="0 0 64 58"><path d="M28 5c0 2.4-.6 3.2-2.7 4-1.6.6-3.6 1.5-4.7 2.1-1.4.8-2.1.6-3.3-1-1.8-2.7-3.4-2.6-6.1.2-2.6 2.7-2.8 4.4-.7 6.7 1.4 1.5 1.4 2 0 4.6C9.7 23.2 9 25 9 25.7c0 .6-1.5 1.3-3.2 1.5-3.1.3-3.3.6-3.6 4.5C1.9 35.9 2 36 5 36c2.4 0 3.2.6 4 2.7.6 1.6 1.4 3.5 1.9 4.4.7 1.2.5 2.2-1 3.5-2.5 2.2-2.4 3.6.4 6.2s4.4 2.8 6.9.5c1.4-1.3 2.1-1.4 3-.5 2 2 2.8 1.4 2.8-2.2 0-2.4-.9-4.3-3.5-7C9.3 32.8 17.1 15 32 15c15.3 0 22.8 18.2 11.9 29.1-2.8 2.8-3.9 4.7-3.9 6.9 0 3 1.7 3.9 3.6 2 .7-.7 1.6-.4 2.9 1 2.3 2.6 3.7 2.5 6.3-.3 2.6-2.7 2.8-4.4.7-6.7-1.4-1.5-1.4-2 0-4.6.8-1.6 1.5-3.4 1.5-4.1 0-.6 1.5-1.3 3.3-1.5 3-.3 3.2-.5 3.2-4.3 0-3.6-.3-4-2.8-4.5-2.1-.4-3.3-1.5-4.7-4.7-1.8-4.1-1.8-4.2.1-5.9 2.5-2.2 2.4-3.6-.4-6.2-2.7-2.6-4.4-2.8-6.7-.7-1.5 1.4-2 1.4-4.6 0C40.8 9.7 39 9 38.3 9c-.6 0-1.3-1.5-1.5-3.3-.3-3-.6-3.2-4.5-3.5C28.1 1.9 28 2 28 5z" fill="currentColor"/><path d="M23.8 23.7c-5.2 6-5.1 9.7.6 17.7 1.5 2.1 1.8 4.2 1.7 9.7-.2 8.1.4 10.9 2.4 10.9 1.1 0 1.5-2.1 1.7-9.2.4-12.2 2.2-12.2 2.6 0 .2 8.2.5 9.3 2 9 1.4-.3 1.8-1.9 2.2-9.5.4-7.5.9-9.6 2.6-11.5 5-5.4 5.5-10.9 1.3-16.2-2.9-3.7-3.9-3.2-3.9 1.9 0 3.8-.4 4.7-2.4 5.6-3.8 1.8-7.3.4-8.1-3.1-.4-1.6-.4-3.9 0-5 .8-2.5-.7-2.6-2.7-.3z" fill="currentColor"/></svg>